<svg width="46" height="51" viewBox="0 0 46 51" fill="none" xmlns="http://www.w3.org/2000/svg">
<path d="M42.477 21.0214C41.9306 21.544 41.2963 21.9265 40.5955 22.2021C40.2272 22.1142 39.9825 22.4254 39.6594 22.4991C39.0513 22.6369 38.455 22.8317 37.8967 22.8246C37.9584 22.8103 38.0962 22.7723 38.2221 22.8768C38.0416 22.9813 37.8444 22.9766 37.6472 22.9576C37.0818 22.8744 36.5116 22.941 35.9438 22.9196C35.4283 22.8436 34.908 22.7865 34.402 22.6583C34.0932 22.5799 33.8057 22.5205 33.5847 22.2164C33.3305 21.8648 32.8697 22.1142 32.5181 22.0026C31.4134 21.5084 30.5343 20.7007 29.6363 19.9214C28.3938 18.8405 27.1846 17.7239 25.8471 16.7594C25.2911 16.2438 24.6355 15.9231 23.899 15.7592C23.267 15.5858 22.6375 15.4147 22.0055 15.2413C21.1717 14.9443 20.3117 15.0132 19.454 15.075C19.2402 15.0892 19.0216 15.0987 18.8102 15.1344C17.753 15.2579 16.722 15.486 15.7289 15.8708C15.5959 15.9231 15.4438 15.9397 15.3821 16.0989C13.6169 16.909 12.0822 18.0304 10.8017 19.4962C10.4311 19.7741 10.127 20.102 10.0224 20.5724C9.29073 21.7769 8.77758 23.0716 8.40697 24.4258C8.1884 24.7513 8.22641 25.1361 8.16227 25.4972C7.92232 26.8585 8.01735 28.2269 8.10288 29.593C8.15752 29.5739 8.13851 29.4955 8.1979 29.4789C8.29293 29.9683 8.39033 30.4577 8.48536 30.9471C8.30243 31.5292 8.72531 31.9639 8.87498 32.4628C8.93675 32.6648 8.92962 32.9522 9.18382 33.0805C10.3384 35.594 12.0323 37.6537 14.3177 39.2265C15.7004 40.1791 17.2232 40.8419 18.7888 41.4169C19.3637 41.7328 19.9957 41.8588 20.6347 41.9633L20.6252 41.9562C22.5567 42.3743 24.5048 42.3933 26.46 42.1676C26.7071 42.1391 26.9684 42.189 27.2012 42.0678C27.3343 42.0155 27.4768 42.0417 27.6122 42.0203C27.6621 42.0132 27.5766 41.9894 27.5837 41.9609C29.04 41.6188 30.5011 41.2886 31.8671 40.6566C32.6036 40.3169 33.3234 39.9439 34.0528 39.5852C34.5612 39.2882 35.0173 39.5496 35.5019 39.6897C36.5971 40.0057 37.6591 39.9582 38.6094 39.2288C39.4575 38.6349 39.9992 37.8272 40.2819 36.8365C40.327 36.7747 40.346 36.7035 40.3674 36.6322C40.3817 36.3067 40.4078 35.9836 40.3484 35.6605C40.3033 35.2305 40.2771 34.7934 39.9255 34.4727C39.8234 34.3159 39.7212 34.1567 39.6191 33.9999C39.5312 33.6483 39.3245 33.4131 38.9634 33.3252C37.5142 32.2823 36.0175 32.2775 34.478 33.1138C33.4778 33.558 33.0645 34.3943 32.9409 35.4206C32.8815 35.9408 32.8507 36.4659 32.9908 36.9719C33.055 37.2071 32.9195 37.257 32.7841 37.3354C32.271 37.6276 31.765 37.9388 31.2043 38.1384C31.1354 38.1099 31.0309 38.079 30.9952 38.1051C30.5533 38.4306 29.9879 38.471 29.5247 38.7442C29.097 38.8202 28.6955 38.9936 28.2679 39.072C28.1966 39.0839 28.2822 39.053 28.2156 39.0815C28.2038 39.0863 28.2632 39.1101 28.2774 39.1409C26.6714 39.5947 25.0298 39.7087 23.3739 39.6303C21.1693 39.5258 19.062 38.9865 17.1258 37.9293C13.6217 36.0192 11.3885 33.1636 10.8017 29.1392C10.7898 29.0513 10.8041 28.9586 10.8064 28.8684C10.9228 28.4027 10.7494 27.9418 10.7851 27.4738C10.8088 27.1697 10.8207 26.8633 10.8492 26.5592C10.8682 26.0175 11.0321 25.4901 11.025 24.9461C11.7068 21.5274 14.7905 18.4913 18.1094 17.9662C18.5489 18.0803 18.9504 17.8427 19.3828 17.8261C19.9007 17.8071 20.4257 17.8546 20.9412 17.7524C21.2358 17.6906 21.5114 17.8189 21.7965 17.8427C22.0198 17.8617 22.1908 17.9615 22.2194 18.1872C22.2455 18.4176 22.0816 18.5364 21.8773 18.61C21.1788 18.869 20.5611 19.2681 19.9577 19.6934C19.751 19.7266 19.6037 19.8288 19.5491 20.0402C18.0547 21.5607 17.2422 23.3567 17.3373 25.521C17.3729 26.3454 17.5938 27.127 17.8718 27.8943C17.9288 28.3219 18.0737 28.7044 18.4396 28.9681C19.2925 30.1774 20.4043 31.0706 21.7418 31.6931C22.1956 32.0471 22.7634 32.1421 23.2908 32.2181C24.1271 32.3369 24.9847 32.3797 25.8304 32.211C25.9017 32.1967 25.8209 32.2324 25.8803 32.1991C25.9136 32.1801 25.8376 32.1682 25.8328 32.1373C27.6597 31.7929 29.1113 30.7547 30.5201 29.6262C31.0142 29.2319 31.5107 28.8351 32.0833 28.5524C32.404 28.4692 32.7081 28.3505 32.9433 28.1034C33.8009 27.6401 34.7227 27.4192 35.6896 27.3645C36.3406 27.4239 36.9939 27.4263 37.6448 27.3645C39.4599 27.5 41.092 28.0867 42.4747 29.3007C42.5483 29.4908 42.6362 29.6666 42.8833 29.6618C43.8051 30.5005 44.4441 31.5197 44.8361 32.7004C44.7458 33.1019 45.0333 33.4155 45.0856 33.7837L45.0808 33.7742C45.3136 35.1284 45.4158 36.4849 45.0571 37.8343C44.943 38.2643 44.7458 38.6753 44.7363 39.1314C44.5035 39.894 44.1305 40.5854 43.6649 41.2316C43.2634 41.4264 43.1874 41.8492 42.9926 42.189C42.2181 43.2319 41.3058 44.1347 40.2676 44.9163C39.8946 44.9377 39.7355 45.237 39.5264 45.4746C38.9824 45.9355 38.3789 46.3061 37.7565 46.6458C37.1531 46.7171 36.7207 47.1091 36.2527 47.4417C35.4853 47.8907 34.6609 48.2114 33.8223 48.5012C33.4303 48.5179 33.0502 48.5654 32.7485 48.8552C32.4373 49.0215 32.0952 49.0999 31.7531 49.1641C31.0261 49.1736 30.349 49.4396 29.6458 49.5774C28.3487 49.8316 27.0492 50.0098 25.7306 50.0526C25.6404 50.055 25.5525 50.0835 25.4646 50.1001C24.797 50.1262 24.1294 50.055 23.4642 50.1405C22.4617 50.1452 21.4686 50.0431 20.4875 49.8435C20.5967 49.7556 20.706 49.7461 20.7678 49.7912C19.884 49.6938 18.9622 49.4895 18.0381 49.2852C17.6984 49.2116 17.4038 48.9407 17.0213 49.0548C14.5458 48.3492 12.2509 47.2611 10.1341 45.7953C9.98206 45.553 9.75399 45.4271 9.48791 45.351C4.98594 42.1771 1.91178 38.0148 0.650274 32.5982C-0.56609 27.3812 -0.145592 22.3518 2.50333 17.6289C4.75787 13.6068 8.13138 10.8581 12.4433 9.24975C12.9802 9.21411 13.4696 9.02168 13.9424 8.7746C14.6194 8.50615 15.3274 8.36598 16.0425 8.25432C16.6317 8.36598 17.1852 8.13316 17.7578 8.07615C18.0333 8.04764 18.3018 8.00012 18.5417 8.1783C18.7104 8.30421 18.632 8.20206 18.6392 8.10465C18.6487 7.95973 18.7865 7.97636 18.8934 7.96924C20.2356 7.85995 21.5684 7.91222 22.8988 8.12603C23.3359 8.19493 23.7754 8.31609 24.2268 8.24957C24.6497 8.28996 25.0583 8.38498 25.4479 8.55604C25.5929 8.71996 25.7734 8.73659 25.973 8.69383C26.4695 8.81262 26.947 8.97892 27.3984 9.21886C27.5528 9.35903 27.6787 9.56334 27.9401 9.44456C28.8737 9.80804 29.7503 10.276 30.5676 10.8557C30.7173 11.2335 31.1069 11.3024 31.3991 11.4924C31.8053 11.7561 32.1379 12.1101 32.5394 12.3762L32.5323 12.3691C32.9813 12.5995 32.6131 12.9606 32.6749 13.2528C32.6036 13.4334 32.6677 13.6828 32.4919 13.7945C32.3209 13.9061 32.5038 13.9323 32.5109 13.9893C32.587 14.6735 32.6654 15.3743 33.0407 15.9635C33.4185 16.5574 33.7938 17.1965 34.5944 17.3224C36.5639 18.2988 39.0584 17.56 39.9469 15.1082C40.1203 14.8778 40.156 14.626 40.0728 14.3528C40.0728 14.1675 40.0728 13.9845 40.0728 13.7992C40.137 13.709 40.1108 13.6044 40.1132 13.5046C40.1156 13.4643 40.1275 13.4215 40.0966 13.3835C40.1085 13.4381 40.0871 13.4761 40.0419 13.507C39.9398 13.4049 39.9493 13.2766 39.9516 13.1483C39.9778 12.7444 39.8234 12.4237 39.5074 12.1742C38.3457 10.668 36.8704 10.1169 35.0268 10.7227C34.8106 10.794 34.6847 10.6989 34.5778 10.5374C34.3854 10.2784 34.2001 10.0076 33.8413 9.95533C33.7629 9.89357 33.6869 9.82942 33.6085 9.76765C33.4137 9.50632 33.2141 9.24975 32.8459 9.23312C30.3086 7.4941 27.5576 6.25635 24.5285 5.66717C24.0867 5.58165 23.6424 5.50325 23.2005 5.42247C22.8252 5.14214 22.3809 5.29419 21.9746 5.24905C20.4494 5.07325 18.9219 5.23242 17.3966 5.3417C17.3681 5.34408 17.4822 5.3512 17.4822 5.4106C17.0356 5.47474 16.5913 5.53889 16.1447 5.60303C16.0853 5.56502 16.0187 5.55789 15.9498 5.56502C15.9023 5.56977 15.8548 5.54601 15.8097 5.57214C15.8619 5.56739 15.9071 5.58402 15.9427 5.62441C15.4652 5.72657 14.9853 5.83109 14.5078 5.93325C14.1039 5.80734 13.7784 6.07105 13.4221 6.16132C12.9802 6.27536 12.5098 6.32762 12.1226 6.60558C10.6948 7.17575 9.2741 7.76018 7.94846 8.55129C6.62043 9.34478 5.37556 10.2499 4.23759 11.3C4.03803 11.4829 3.82897 11.7276 3.54151 11.4782C3.24692 11.2216 3.47737 10.9888 3.63891 10.7726C4.04041 10.238 4.40864 9.675 4.89804 9.20936C5.07384 9.1167 5.24252 9.0193 5.25202 8.78886C7.14784 6.5747 9.40476 4.80241 11.9444 3.38887C14.0588 2.21289 16.2825 1.31724 18.6582 0.825472C19.2117 0.891992 19.7225 0.671051 20.2546 0.587901C21.3118 0.423977 22.3738 0.317073 23.4381 0.219669C24.6473 0.19116 25.8518 0.233926 27.0563 0.326579C28.5554 0.507133 30.0378 0.773214 31.4941 1.18896C31.5797 1.21272 31.6723 1.20559 31.7554 1.1557C36.476 2.49798 40.6002 4.75965 43.5318 8.83875C43.8383 9.264 44.1258 9.70351 44.3063 10.2048C44.2754 10.3164 44.2968 10.4257 44.3444 10.5208C45.1378 12.1125 45.4348 13.7921 45.24 15.5596C45.2329 15.6309 45.2424 15.7046 45.2827 15.7687C45.2922 16.1179 45.2162 16.4481 45.0832 16.7689C44.9288 17.0326 44.7458 17.2892 44.8409 17.6241C44.4489 18.8049 43.8051 19.824 42.8857 20.665C42.6647 20.6912 42.5317 20.8123 42.477 21.0214Z" fill="#2E3192"/>
<path d="M27.2796 42.0819C27.061 42.4264 26.7071 42.2149 26.4339 42.2506C24.5119 42.5119 22.5947 42.4834 20.6965 42.032C20.668 42.0249 20.649 41.9821 20.6252 41.9536C21.9533 42.0534 23.2765 42.253 24.6141 42.1912C25.0132 42.1722 25.4123 42.1793 25.8114 42.1746C26.0015 42.0914 26.2153 42.1769 26.4054 42.0985C26.7047 42.1033 26.9779 41.9251 27.282 41.9821C27.32 42.0035 27.3319 42.0249 27.32 42.0463C27.3034 42.0724 27.2915 42.0819 27.2796 42.0819Z" fill="#2E3192"/>
<path d="M24.2197 8.24943C23.7612 8.48225 23.2813 8.28031 22.8584 8.19954C21.547 7.95009 20.2356 8.057 18.9242 8.02849C18.8387 8.02611 18.7128 8.00948 18.7175 8.13302C18.7199 8.19479 18.8221 8.25418 18.8791 8.35634C18.1165 8.02374 17.3657 8.21854 16.6079 8.3397C16.425 8.36821 16.2088 8.41335 16.0377 8.25418C16.6483 8.20429 17.2375 7.99998 17.8551 8.00948C18.0381 7.91921 18.2471 8.01186 18.4324 7.93346C18.7437 7.92396 19.0549 7.91208 19.3637 7.90257C20.0194 7.8313 20.6775 7.8313 21.3332 7.90257C22.3143 7.85031 23.2599 8.12589 24.2197 8.24943Z" fill="#2E3192"/>
<path d="M45.2804 15.7688C45.0951 15.5454 45.1901 15.2794 45.1877 15.0347C45.1782 14.2032 45.2661 13.355 44.9596 12.5663C44.7126 11.932 44.7458 11.1979 44.2778 10.642C44.1662 10.5089 44.1543 10.3426 44.3039 10.2048C45.2447 11.951 45.5678 13.8064 45.2804 15.7688Z" fill="#2E3192"/>
<path d="M44.7363 39.1313C44.677 38.7964 44.6508 38.4851 44.8314 38.1478C45.107 37.6323 45.1236 37.036 45.1806 36.4634C45.2709 35.563 45.0476 34.6721 45.0808 33.7717C45.316 34.4298 45.3849 35.114 45.3825 35.8077C45.3754 36.9528 45.2186 38.0741 44.7363 39.1313Z" fill="#2E3192"/>
<path d="M25.5311 50.0478C26.1701 49.8149 26.852 50.0074 27.5005 49.8363C28.1729 49.6581 28.8713 49.6415 29.5555 49.4705C30.2207 49.3042 30.9168 49.1497 31.6153 49.0808C31.658 49.0761 31.7056 49.1355 31.7507 49.164C30.4345 49.537 29.1137 49.8696 27.7405 49.9504C27.5623 50.0501 27.3509 49.9408 27.1727 50.0335C27.004 50.043 26.8353 50.0525 26.6643 50.062C26.3293 50.1713 25.9777 50.0383 25.6427 50.1428C25.6047 50.1428 25.5667 50.1428 25.5287 50.1428C25.4907 50.1214 25.4788 50.1024 25.4907 50.081C25.5073 50.0596 25.5192 50.0478 25.5311 50.0478Z" fill="#2E3192"/>
<path d="M32.5157 22.0027C32.8744 21.9124 33.2925 21.7057 33.5729 22.043C34.1692 22.7629 35.0672 22.5657 35.7942 22.865C35.7704 22.9102 35.7348 22.9387 35.6873 22.9577C34.5541 22.8936 33.4945 22.5847 32.5157 22.0027Z" fill="#2E3192"/>
<path d="M34.5897 17.3225C34.4186 17.4626 34.2571 17.4222 34.1027 17.294C33.2355 16.5765 32.5798 15.7355 32.5181 14.5524C32.5133 14.4811 32.5276 14.3956 32.4943 14.3386C32.2662 13.9418 32.3494 13.5878 32.6274 13.2576C32.6582 13.203 32.6891 13.2054 32.72 13.2576C32.5442 14.1366 32.6321 14.98 33.055 15.7782C33.409 16.4506 33.9007 16.9875 34.5897 17.3225Z" fill="#2E3192"/>
<path d="M38.607 39.2288C38.7044 39.5946 38.215 39.7158 38.1794 39.7205C37.1982 39.8346 36.2052 40.16 35.2264 39.692C34.9294 39.5495 34.6182 39.3713 34.2904 39.6635C34.231 39.7158 34.1169 39.6611 34.0504 39.5827C34.3854 39.2668 34.6966 39.2406 35.1456 39.4568C36.3216 40.0246 37.4881 39.8227 38.607 39.2288Z" fill="#2E3192"/>
<path d="M8.19557 29.4813C8.16469 29.6547 8.17895 29.8472 7.95325 30.0254C7.95325 28.8874 7.92475 27.8017 7.96276 26.7184C7.98889 25.9843 8.1053 25.2549 8.1932 24.5232C8.19558 24.4971 8.17657 24.1051 8.40464 24.4258C8.18845 25.6992 8.06491 26.9797 8.07204 28.2697C8.16469 28.4978 8.06016 28.7472 8.15281 28.9753C8.16944 29.1463 8.1837 29.3126 8.19557 29.4813Z" fill="#2E3192"/>
<path d="M17.475 5.41049C17.3206 5.39623 17.1685 5.38435 16.8692 5.35822C19.1641 5.028 21.307 4.97811 23.4523 5.38198C23.3668 5.39623 23.2789 5.41049 23.1933 5.42474C23.0247 5.41049 22.8584 5.39623 22.6897 5.38198C22.4996 5.29883 22.2882 5.3891 22.1005 5.30358C21.8606 5.29407 21.6206 5.28695 21.3807 5.27745C20.763 5.20855 20.1477 5.21092 19.53 5.27507C19.2188 5.28457 18.9076 5.29407 18.5963 5.30358C18.3683 5.3986 18.1188 5.2917 17.8931 5.38435C17.753 5.39148 17.6152 5.40098 17.475 5.41049Z" fill="#2E3192"/>
<path d="M25.8351 32.135C25.9064 32.1421 25.9777 32.1493 26.1083 32.1611C25.7021 32.413 25.3077 32.3536 24.9062 32.3821C23.7849 32.4605 22.7277 32.2039 21.6729 31.8951C21.5755 31.8666 21.5755 31.8665 21.7442 31.6931C22.3832 31.8784 23.0175 32.0851 23.6827 32.1683C23.8752 32.2467 24.089 32.1611 24.2814 32.2467C24.4596 32.1944 24.6402 32.1944 24.8183 32.2467C25.0464 32.1493 25.3006 32.2538 25.5311 32.1635C25.6308 32.154 25.733 32.1445 25.8351 32.135Z" fill="#2E3192"/>
<path d="M31.7531 1.15812C31.5678 1.34343 31.3849 1.19375 31.1972 1.16049C29.8977 0.927671 28.6267 0.547557 27.301 0.469158C27.2559 0.466783 27.2155 0.409772 27.1703 0.378887C27.1941 0.364633 27.2179 0.348003 27.2416 0.333748C27.4079 0.336124 27.579 0.293362 27.7405 0.371761C29.0115 0.428778 30.2279 0.756623 31.4443 1.09635C31.544 1.12248 31.6486 1.13674 31.7531 1.15812Z" fill="#2E3192"/>
<path d="M17.0189 49.0548C17.2707 48.8267 17.4655 48.9835 17.7411 49.0738C18.4919 49.3209 19.2782 49.4634 20.0598 49.6012C20.3259 49.6487 20.5872 49.6963 20.8581 49.7651C20.7417 49.8744 20.6039 49.8127 20.4851 49.8435C19.302 49.7034 18.145 49.4421 17.0189 49.0548Z" fill="#2E3192"/>
<path d="M23.3478 0.269461C22.8038 0.46902 22.2241 0.388247 21.6658 0.478524C20.9649 0.590183 20.2617 0.649579 19.5752 0.868144C19.3043 0.95367 18.9527 1.01069 18.6558 0.830132C19.5276 0.55455 20.4328 0.466648 21.3356 0.369244C21.5232 0.283718 21.7371 0.378747 21.9247 0.28847C22.091 0.278967 22.255 0.269466 22.4213 0.259963C22.6992 0.181564 22.9819 0.229073 23.2646 0.224321C23.2931 0.238576 23.3217 0.255206 23.3478 0.269461Z" fill="#2E3192"/>
<path d="M15.3797 16.099C15.268 15.8994 15.4605 15.8876 15.5531 15.8567C16.5937 15.4861 17.6271 15.0751 18.7627 15.1178C18.7746 15.1345 18.7865 15.1487 18.7983 15.1653C18.7865 15.1796 18.7746 15.1962 18.7603 15.2105C17.6081 15.4053 16.4654 15.6429 15.3797 16.099Z" fill="#2E3192"/>
<path d="M18.7626 15.1154C19.3946 14.9063 20.0645 14.9491 20.706 14.9324C21.2073 14.9206 21.7513 14.9752 22.3357 15.1961C22.1694 15.2175 22.0863 15.2294 22.0031 15.2413C21.1574 15.1748 20.3116 15.1035 19.4611 15.1272C19.2283 15.1843 18.9955 15.208 18.7626 15.1154Z" fill="#2E3192"/>
<path d="M27.1703 0.378825C25.8946 0.407334 24.626 0.191139 23.3502 0.269537C23.3146 0.250532 23.3027 0.22915 23.3146 0.210144C23.3265 0.191139 23.3383 0.181637 23.3502 0.181637C24.626 0.146001 25.9017 0.103242 27.1703 0.288547C27.206 0.307553 27.2179 0.328934 27.206 0.34794C27.1941 0.369321 27.1822 0.378825 27.1703 0.378825Z" fill="#2E3192"/>
<path d="M32.9433 35.4183C32.7271 34.7365 33.188 34.2756 33.5111 33.7933C33.7344 33.4631 33.915 32.9856 34.4804 33.1115C33.6275 33.6531 33.1999 34.4799 32.9433 35.4183Z" fill="#2E3192"/>
<path d="M38.2197 22.8791C38.1033 22.8482 37.9679 22.9147 37.8539 22.7983C38.6474 22.6677 39.4242 22.5227 40.1583 22.2044C40.2961 22.145 40.4505 22.0286 40.5954 22.2044C39.8423 22.5608 39.0631 22.8292 38.2197 22.8791Z" fill="#2E3192"/>
<path d="M32.5323 12.3786C32.1593 12.4166 32.0025 12.0816 31.7982 11.8916C31.411 11.5305 30.8337 11.4497 30.5272 10.9912C30.4892 10.9342 30.5058 10.8914 30.5581 10.8582C31.2375 11.3357 32.0334 11.6659 32.5323 12.3786Z" fill="#2E3192"/>
<path d="M20.9435 17.7499C20.4233 17.978 19.8555 17.8758 19.3162 17.9233C18.9266 17.959 18.5156 18.2203 18.1093 17.9637C19.043 17.7167 19.9861 17.6478 20.9435 17.7499Z" fill="#2E3192"/>
<path d="M12.1178 6.60561C12.0631 6.58661 11.9396 6.53196 12.0014 6.51296C12.7996 6.27063 13.5646 5.89052 14.4199 5.86914C14.446 5.86914 14.4745 5.90953 14.503 5.93328C13.7071 6.1566 12.9113 6.3823 12.1178 6.60561Z" fill="#2E3192"/>
<path d="M10.9038 26.4688C10.8468 27.267 11.0202 28.0748 10.8088 28.8659C10.6829 28.032 10.6544 27.1958 10.804 26.3619C10.8397 26.3239 10.8801 26.3191 10.9252 26.3453C10.9466 26.3904 10.9418 26.4332 10.9038 26.4688Z" fill="#2E3192"/>
<path d="M9.18144 33.0804C9.14818 33.1422 9.04839 33.2253 9.04126 33.1849C8.90585 32.4912 8.33568 31.9401 8.39507 31.1893C8.4022 31.1062 8.45209 31.0278 8.48298 30.947C8.58988 31.7001 8.99851 32.3534 9.18144 33.0804Z" fill="#2E3192"/>
<path d="M23.8966 15.7591C24.0344 15.6712 24.0985 15.474 24.3385 15.733C24.5618 15.9753 24.9562 16.0798 25.2935 16.1963C25.5881 16.2984 25.771 16.4623 25.8471 16.7593C25.1961 16.4267 24.5452 16.0941 23.8966 15.7591Z" fill="#2E3192"/>
<path d="M39.9255 34.4727C40.0966 34.5225 40.4221 34.9882 40.4102 35.1569C40.3983 35.3184 40.3912 35.4823 40.3793 35.6439C40.4648 36.005 40.4648 36.3685 40.3793 36.7296C40.346 36.7652 40.3128 36.8032 40.2795 36.8389C40.3247 36.024 40.2819 35.2258 39.9255 34.4727Z" fill="#2E3192"/>
<path d="M20.6324 41.9632C19.9719 42.0677 19.3946 41.7541 18.7864 41.5926C18.6677 41.5617 18.4942 41.4738 18.7864 41.4167C19.4208 41.5332 20.0289 41.7351 20.6324 41.9632Z" fill="#2E3192"/>
<path d="M36.2527 47.4394C36.2337 47.4133 36.1933 47.361 36.1957 47.361C36.6423 47.0165 37.0842 46.6578 37.6543 46.5295C37.6781 46.5248 37.7209 46.6031 37.7565 46.6435C37.2576 46.9167 36.8015 47.2636 36.2527 47.4394Z" fill="#2E3192"/>
<path d="M29.5698 38.6943C29.8834 38.3925 30.4203 38.4828 30.6721 38.1716C30.905 37.8818 31.0166 37.9697 31.2043 38.1383C30.7339 38.4115 30.2255 38.5873 29.6957 38.7038C29.653 38.7394 29.6102 38.7346 29.5698 38.6943Z" fill="#2E3192"/>
<path d="M13.9376 8.77466C13.9827 8.79604 14.0279 8.81742 14.073 8.83642C13.5361 9.00272 13.0538 9.38996 12.4385 9.24742C12.9279 9.05499 13.4126 8.85068 13.9376 8.77466Z" fill="#2E3192"/>
<path d="M29.5698 38.6943C29.6126 38.6967 29.6553 38.6991 29.6981 38.7038C29.2681 38.9842 28.7644 39.0341 28.2798 39.1433C28.2085 39.1362 28.1396 39.1291 28.0684 39.122C28.5673 38.9675 29.0353 38.7133 29.5698 38.6943Z" fill="#2E3192"/>
<path d="M10.0225 20.5723C10.0035 20.1066 10.3503 19.6244 10.8017 19.4961C10.5404 19.8548 10.2814 20.2136 10.0225 20.5723Z" fill="#2E3192"/>
<path d="M18.4419 28.9681C18.0238 28.8422 17.791 28.4003 17.8741 27.8943C18.0618 28.2506 18.2519 28.6094 18.4419 28.9681Z" fill="#2E3192"/>
<path d="M42.9926 42.1867C42.995 41.7852 43.368 41.2554 43.6649 41.2292C43.4131 41.531 43.2991 41.9253 42.9926 42.1867Z" fill="#2E3192"/>
<path d="M32.7485 48.8529C32.6986 48.8291 32.5584 48.8054 32.6344 48.7602C32.9956 48.5393 33.3757 48.3516 33.8223 48.5013C33.4636 48.6177 33.1072 48.7341 32.7485 48.8529Z" fill="#2E3192"/>
<path d="M25.5311 50.0478C25.5311 50.0787 25.5311 50.1096 25.5311 50.1405C24.8421 50.1405 24.1508 50.1405 23.4619 50.1405C24.1437 49.9409 24.8421 50.1001 25.5311 50.0478Z" fill="#2E3192"/>
<path d="M32.9433 28.1011C33.0336 28.151 33.1334 28.3149 33.0954 28.3101C32.7224 28.265 32.4682 28.6998 32.0833 28.5525C32.3494 28.3624 32.6155 28.17 32.9433 28.1011Z" fill="#2E3192"/>
<path d="M37.6448 27.3598C36.9939 27.5071 36.3405 27.5047 35.6896 27.3598C36.3429 27.2933 36.9939 27.2956 37.6448 27.3598Z" fill="#2E3192"/>
<path d="M32.8411 9.2379C33.3068 9.15237 33.4351 9.24265 33.6037 9.77243C33.3472 9.59188 33.0953 9.4137 32.8411 9.2379Z" fill="#2E3192"/>
<path d="M35.6873 22.9576C35.7229 22.9267 35.7585 22.8958 35.7942 22.8649C36.4095 22.9172 37.0367 22.7604 37.6448 22.9552C36.9915 23.0265 36.3406 23.0217 35.6873 22.9576Z" fill="#2E3192"/>
<path d="M39.5026 12.1765C39.954 12.3381 40.0847 12.6279 39.9469 13.1505C39.7972 12.8251 39.6499 12.502 39.5026 12.1765Z" fill="#2E3192"/>
<path d="M39.5264 45.4722C39.65 44.9804 39.8662 44.8189 40.2676 44.9139C40.0467 45.1348 39.8068 45.332 39.5264 45.4722Z" fill="#2E3192"/>
<path d="M21.3332 7.90268C20.6775 7.90268 20.0218 7.90268 19.3637 7.90268C20.0194 7.78389 20.6775 7.77201 21.3332 7.90268Z" fill="#2E3192"/>
<path d="M19.5301 5.27511C20.1478 5.12544 20.7631 5.1207 21.3808 5.27749C20.7631 5.27512 20.1478 5.27511 19.5301 5.27511Z" fill="#2E3192"/>
<path d="M33.8342 9.95764C34.2286 9.91726 34.4733 10.1097 34.5707 10.5397C34.326 10.3473 34.0813 10.1525 33.8342 9.95764Z" fill="#2E3192"/>
<path d="M10.9039 26.4688C10.9039 26.4332 10.9039 26.3952 10.9039 26.3595C10.816 26.1338 10.8302 25.9081 10.8944 25.6801C10.8801 25.4235 10.9015 25.174 11.0274 24.9436C11.17 25.4663 11.0203 25.9675 10.9039 26.4688Z" fill="#2E3192"/>
<path d="M38.9657 33.3228C39.4432 33.3346 39.6903 33.5888 39.6214 33.9974C39.4028 33.7741 39.1843 33.5484 38.9657 33.3228Z" fill="#2E3192"/>
<path d="M32.72 13.26C32.6891 13.26 32.6582 13.26 32.6274 13.26C32.5513 12.9678 32.7937 12.64 32.5252 12.3691C33.3448 12.5022 32.682 12.9583 32.72 13.26Z" fill="#2E3192"/>
<path d="M44.8361 17.6217C44.6271 17.2464 44.9098 16.9589 45.012 16.6382C45.0262 16.6477 45.0476 16.6524 45.0523 16.6643C45.0666 16.6976 45.0713 16.7332 45.0808 16.7688C45.1284 17.0896 44.8314 17.3129 44.8361 17.6217Z" fill="#2E3192"/>
<path d="M9.48553 45.3511C9.84664 45.2869 10.051 45.4508 10.1317 45.7953C9.88941 45.6884 9.67797 45.5316 9.48553 45.3511Z" fill="#2E3192"/>
<path d="M45.0879 33.7813C44.9074 33.4416 44.6484 33.1233 44.8384 32.698C44.8788 33.0686 45.1806 33.3775 45.0879 33.7813Z" fill="#2E3192"/>
<path d="M27.933 9.44688C27.7358 9.55141 27.4246 9.47777 27.2606 9.28533C27.2583 9.28058 27.2725 9.24969 27.2868 9.24494C27.32 9.23306 27.3557 9.22832 27.3913 9.22119C27.5719 9.29484 27.7524 9.37086 27.933 9.44688Z" fill="#2E3192"/>
<path d="M40.0657 14.3552C40.27 14.6617 40.1417 14.9444 40.0087 15.2295C40.0087 15.2295 39.973 15.22 39.9706 15.2105C39.9564 15.1772 39.9516 15.144 39.9421 15.1107C39.9825 14.8589 40.0229 14.607 40.0657 14.3552Z" fill="#2E3192"/>
<path d="M42.477 21.0214C42.4747 20.7458 42.4937 20.4964 42.8809 20.6627C42.7787 20.8171 42.641 20.9335 42.477 21.0214Z" fill="#2E3192"/>
<path d="M19.5514 20.0378C19.5514 19.7409 19.6678 19.6411 19.96 19.691C19.8246 19.8074 19.6868 19.9214 19.5514 20.0378Z" fill="#2E3192"/>
<path d="M25.6451 50.1405C25.973 49.9623 26.3246 50.0811 26.6667 50.0597C26.3317 50.1785 25.9872 50.15 25.6451 50.1405Z" fill="#2E3192"/>
<path d="M42.8833 29.6594C42.5792 29.7283 42.4794 29.6404 42.4747 29.2983C42.6101 29.4171 42.7479 29.5383 42.8833 29.6594Z" fill="#2E3192"/>
<path d="M23.3502 0.181718C23.3502 0.212602 23.3502 0.241112 23.3502 0.271996C23.0413 0.267245 22.7325 0.264867 22.426 0.262491C22.7254 0.138955 23.0366 0.16984 23.3502 0.181718Z" fill="#2E3192"/>
<path d="M5.24967 8.79126C5.32332 9.09298 5.17602 9.20701 4.89569 9.21176C5.0121 9.07159 5.13088 8.93143 5.24967 8.79126Z" fill="#2E3192"/>
<path d="M25.9635 8.69614C25.7401 8.82918 25.5429 8.87432 25.4384 8.55835C25.6308 8.54172 25.7972 8.62249 25.9635 8.69614Z" fill="#2E3192"/>
<path d="M17.8932 5.38213C18.1118 5.21108 18.3612 5.31799 18.5964 5.30136C18.3707 5.40826 18.1331 5.40114 17.8932 5.38213Z" fill="#2E3192"/>
<path d="M10.8943 25.6802C10.8967 25.9059 10.9014 26.1339 10.9038 26.3596C10.8706 26.3596 10.8373 26.3596 10.804 26.362C10.7945 26.1292 10.7613 25.894 10.8943 25.6802Z" fill="#2E3192"/>
<path d="M18.7626 15.1152C18.9955 15.12 19.2283 15.1224 19.4611 15.1271C19.2354 15.2126 19.0002 15.2221 18.7626 15.2079C18.7626 15.177 18.7626 15.1461 18.7626 15.1152Z" fill="#2E3192"/>
<path d="M8.15517 28.9776C7.98649 28.759 8.09102 28.5095 8.07439 28.272C8.18367 28.4977 8.16704 28.7376 8.15517 28.9776Z" fill="#2E3192"/>
<path d="M25.5288 32.1635C25.3078 32.337 25.0536 32.2229 24.816 32.2467C25.0441 32.1398 25.2888 32.1588 25.5288 32.1635Z" fill="#2E3192"/>
<path d="M27.2796 42.082C27.2796 42.0488 27.2796 42.0179 27.2796 41.9846C27.3818 41.9751 27.4839 41.968 27.5837 41.9585C27.6645 41.9704 27.7429 41.9799 27.8236 41.9918C27.8213 42.0203 27.8213 42.0512 27.8189 42.0797C27.6407 42.082 27.4602 42.082 27.2796 42.082Z" fill="#2E3192"/>
<path d="M27.1703 0.37888C27.1703 0.347996 27.1703 0.319486 27.1703 0.288602C27.3675 0.26722 27.5623 0.26247 27.7405 0.371753C27.5505 0.374129 27.3604 0.376504 27.1703 0.37888Z" fill="#2E3192"/>
<path d="M21.9271 0.286036C21.7489 0.445208 21.5375 0.357306 21.338 0.366809C21.5233 0.252775 21.7252 0.269406 21.9271 0.286036Z" fill="#2E3192"/>
<path d="M40.0372 13.5094C40.0562 13.4643 40.0657 13.3883 40.0966 13.3788C40.1678 13.355 40.156 13.431 40.1583 13.469C40.1607 13.5878 40.1821 13.7138 40.0657 13.8017C40.0562 13.7042 40.0467 13.6068 40.0372 13.5094Z" fill="#2E3192"/>
<path d="M22.1005 5.30369C22.3001 5.31319 22.5115 5.22529 22.6897 5.38209C22.4878 5.4011 22.2858 5.40347 22.1005 5.30369Z" fill="#2E3192"/>
<path d="M26.403 42.101C26.2225 42.2554 26.0086 42.1699 25.8091 42.177C25.9968 42.0773 26.1987 42.0891 26.403 42.101Z" fill="#2E3192"/>
<path d="M18.4325 7.93348C18.2567 8.08315 18.05 8 17.8552 8.00951C18.0381 7.92161 18.2329 7.9121 18.4325 7.93348Z" fill="#2E3192"/>
<path d="M24.2791 32.2465C24.0772 32.2299 23.8633 32.3249 23.6804 32.1681C23.8847 32.1562 24.089 32.1491 24.2791 32.2465Z" fill="#2E3192"/>
<path d="M27.1727 50.0312C27.3438 49.8744 27.5505 49.96 27.7405 49.9481C27.5623 50.055 27.3699 50.0502 27.1727 50.0312Z" fill="#2E3192"/>
<path d="M15.938 5.62433C15.8549 5.61245 15.7717 5.60057 15.6125 5.57681C15.8501 5.49129 16.0022 5.47229 16.1376 5.60295C16.0711 5.61008 16.0045 5.6172 15.938 5.62433Z" fill="#2E3192"/>
<path d="M17.1401 25.5827C17.1354 25.4971 17.1282 25.4116 17.1259 25.3285C17.1235 25.136 17.1259 24.9436 17.1947 24.7488C17.1947 25.0196 17.1947 25.2928 17.1947 25.5636C17.1781 25.5708 17.1591 25.5779 17.1401 25.5827Z" fill="#2E3192"/>
<path d="M40.3793 36.7273C40.3793 36.3662 40.3793 36.0027 40.3793 35.6416C40.548 36.0051 40.548 36.3662 40.3793 36.7273Z" fill="#2E3192"/>
</svg>
