<svg width="47" height="51" viewBox="0 0 47 51" fill="none" xmlns="http://www.w3.org/2000/svg">
<path d="M43.2857 21.0214C42.7393 21.544 42.105 21.9265 41.4042 22.2021C41.0359 22.1142 40.7912 22.4254 40.4681 22.4991C39.86 22.6369 39.2637 22.8317 38.7054 22.8246C38.7671 22.8103 38.9049 22.7723 39.0308 22.8768C38.8503 22.9813 38.6531 22.9766 38.4559 22.9576C37.8905 22.8744 37.3203 22.941 36.7525 22.9196C36.237 22.8436 35.7167 22.7865 35.2107 22.6583C34.9019 22.5799 34.6144 22.5205 34.3934 22.2164C34.1392 21.8648 33.6784 22.1142 33.3268 22.0026C32.2221 21.5084 31.343 20.7007 30.445 19.9214C29.2025 18.8405 27.9933 17.7239 26.6558 16.7594C26.0998 16.2438 25.4442 15.9231 24.7077 15.7592C24.0757 15.5858 23.4462 15.4147 22.8142 15.2413C21.9804 14.9443 21.1204 15.0132 20.2627 15.075C20.0489 15.0892 19.8303 15.0987 19.6189 15.1344C18.5617 15.2579 17.5307 15.486 16.5376 15.8708C16.4046 15.9231 16.2525 15.9397 16.1908 16.0989C14.4256 16.909 12.8909 18.0304 11.6104 19.4962C11.2398 19.7741 10.9357 20.102 10.8311 20.5724C10.0994 21.7769 9.58628 23.0716 9.21567 24.4258C8.9971 24.7513 9.03511 25.1361 8.97097 25.4972C8.73102 26.8585 8.82605 28.2269 8.91158 29.593C8.96622 29.5739 8.94721 29.4955 9.0066 29.4789C9.10163 29.9683 9.19903 30.4577 9.29406 30.9471C9.11113 31.5292 9.53401 31.9639 9.68368 32.4628C9.74545 32.6648 9.73832 32.9522 9.99252 33.0805C11.1471 35.594 12.841 37.6537 15.1264 39.2265C16.5091 40.1791 18.0319 40.8419 19.5975 41.4169C20.1724 41.7328 20.8044 41.8588 21.4434 41.9633L21.4339 41.9562C23.3654 42.3743 25.3135 42.3933 27.2687 42.1676C27.5158 42.1391 27.7771 42.189 28.0099 42.0678C28.143 42.0155 28.2855 42.0417 28.4209 42.0203C28.4708 42.0132 28.3853 41.9894 28.3924 41.9609C29.8487 41.6188 31.3098 41.2886 32.6758 40.6566C33.4123 40.3169 34.1321 39.9439 34.8615 39.5852C35.3699 39.2882 35.826 39.5496 36.3106 39.6897C37.4058 40.0057 38.4678 39.9582 39.4181 39.2288C40.2662 38.6349 40.8079 37.8272 41.0906 36.8365C41.1357 36.7747 41.1547 36.7035 41.1761 36.6322C41.1904 36.3067 41.2165 35.9836 41.1571 35.6605C41.112 35.2305 41.0858 34.7934 40.7342 34.4727C40.6321 34.3159 40.5299 34.1567 40.4278 33.9999C40.3399 33.6483 40.1332 33.4131 39.7721 33.3252C38.3229 32.2823 36.8262 32.2775 35.2867 33.1138C34.2865 33.558 33.8732 34.3943 33.7496 35.4206C33.6902 35.9408 33.6594 36.4659 33.7995 36.9719C33.8637 37.2071 33.7282 37.257 33.5928 37.3354C33.0797 37.6276 32.5737 37.9388 32.013 38.1384C31.9441 38.1099 31.8396 38.079 31.8039 38.1051C31.362 38.4306 30.7966 38.471 30.3334 38.7442C29.9057 38.8202 29.5042 38.9936 29.0766 39.072C29.0053 39.0839 29.0909 39.053 29.0243 39.0815C29.0125 39.0863 29.0719 39.1101 29.0861 39.1409C27.4801 39.5947 25.8385 39.7087 24.1826 39.6303C21.978 39.5258 19.8707 38.9865 17.9345 37.9293C14.4304 36.0192 12.1972 33.1636 11.6104 29.1392C11.5985 29.0513 11.6128 28.9586 11.6151 28.8684C11.7315 28.4027 11.5581 27.9418 11.5938 27.4738C11.6175 27.1697 11.6294 26.8633 11.6579 26.5592C11.6769 26.0175 11.8408 25.4901 11.8337 24.9461C12.5155 21.5274 15.5992 18.4913 18.9181 17.9662C19.3576 18.0803 19.7591 17.8427 20.1915 17.8261C20.7094 17.8071 21.2344 17.8546 21.7499 17.7524C22.0445 17.6906 22.3201 17.8189 22.6052 17.8427C22.8285 17.8617 22.9995 17.9615 23.0281 18.1872C23.0542 18.4176 22.8903 18.5364 22.686 18.61C21.9875 18.869 21.3698 19.2681 20.7664 19.6934C20.5597 19.7266 20.4124 19.8288 20.3578 20.0402C18.8634 21.5607 18.0509 23.3567 18.146 25.521C18.1816 26.3454 18.4025 27.127 18.6805 27.8943C18.7375 28.3219 18.8824 28.7044 19.2483 28.9681C20.1012 30.1774 21.213 31.0706 22.5505 31.6931C23.0043 32.0471 23.5721 32.1421 24.0995 32.2181C24.9358 32.3369 25.7934 32.3797 26.6391 32.211C26.7104 32.1967 26.6296 32.2324 26.689 32.1991C26.7223 32.1801 26.6463 32.1682 26.6415 32.1373C28.4684 31.7929 29.92 30.7547 31.3288 29.6262C31.8229 29.2319 32.3195 28.8351 32.892 28.5524C33.2127 28.4692 33.5168 28.3505 33.752 28.1034C34.6096 27.6401 35.5314 27.4192 36.4983 27.3645C37.1493 27.4239 37.8026 27.4263 38.4535 27.3645C40.2686 27.5 41.9007 28.0867 43.2834 29.3007C43.357 29.4908 43.4449 29.6666 43.692 29.6618C44.6138 30.5005 45.2528 31.5197 45.6448 32.7004C45.5545 33.1019 45.842 33.4155 45.8943 33.7837L45.8895 33.7742C46.1223 35.1284 46.2245 36.4849 45.8658 37.8343C45.7517 38.2643 45.5545 38.6753 45.545 39.1314C45.3122 39.894 44.9392 40.5854 44.4736 41.2316C44.0721 41.4264 43.9961 41.8492 43.8013 42.189C43.0268 43.2319 42.1145 44.1347 41.0763 44.9163C40.7033 44.9377 40.5442 45.237 40.3351 45.4746C39.7911 45.9355 39.1876 46.3061 38.5652 46.6458C37.9618 46.7171 37.5294 47.1091 37.0614 47.4417C36.294 47.8907 35.4696 48.2114 34.631 48.5012C34.239 48.5179 33.8589 48.5654 33.5572 48.8552C33.246 49.0215 32.9039 49.0999 32.5618 49.1641C31.8348 49.1736 31.1577 49.4396 30.4545 49.5774C29.1574 49.8316 27.8579 50.0098 26.5393 50.0526C26.4491 50.055 26.3612 50.0835 26.2733 50.1001C25.6057 50.1262 24.9381 50.055 24.2729 50.1405C23.2704 50.1452 22.2773 50.0431 21.2962 49.8435C21.4054 49.7556 21.5147 49.7461 21.5765 49.7912C20.6927 49.6938 19.7709 49.4895 18.8468 49.2852C18.5071 49.2116 18.2125 48.9407 17.83 49.0548C15.3545 48.3492 13.0596 47.2611 10.9428 45.7953C10.7908 45.553 10.5627 45.4271 10.2966 45.351C5.79464 42.1771 2.72048 38.0148 1.45897 32.5982C0.24261 27.3812 0.663108 22.3518 3.31203 17.6289C5.56658 13.6068 8.94008 10.8581 13.252 9.24975C13.7889 9.21411 14.2783 9.02168 14.7511 8.7746C15.4281 8.50615 16.1361 8.36598 16.8512 8.25432C17.4404 8.36598 17.9939 8.13316 18.5665 8.07615C18.842 8.04764 19.1105 8.00012 19.3504 8.1783C19.5191 8.30421 19.4407 8.20206 19.4479 8.10465C19.4574 7.95973 19.5952 7.97636 19.7021 7.96924C21.0443 7.85995 22.3771 7.91222 23.7075 8.12603C24.1446 8.19493 24.5841 8.31609 25.0355 8.24957C25.4584 8.28996 25.867 8.38498 26.2566 8.55604C26.4016 8.71996 26.5821 8.73659 26.7817 8.69383C27.2782 8.81262 27.7557 8.97892 28.2071 9.21886C28.3615 9.35903 28.4874 9.56334 28.7488 9.44456C29.6824 9.80804 30.559 10.276 31.3763 10.8557C31.526 11.2335 31.9156 11.3024 32.2078 11.4924C32.614 11.7561 32.9466 12.1101 33.3481 12.3762L33.341 12.3691C33.79 12.5995 33.4218 12.9606 33.4836 13.2528C33.4123 13.4334 33.4764 13.6828 33.3006 13.7945C33.1296 13.9061 33.3125 13.9323 33.3196 13.9893C33.3957 14.6735 33.4741 15.3743 33.8494 15.9635C34.2272 16.5574 34.6025 17.1965 35.4031 17.3224C37.3726 18.2988 39.8671 17.56 40.7556 15.1082C40.929 14.8778 40.9647 14.626 40.8815 14.3528C40.8815 14.1675 40.8815 13.9845 40.8815 13.7992C40.9457 13.709 40.9195 13.6044 40.9219 13.5046C40.9243 13.4643 40.9362 13.4215 40.9053 13.3835C40.9172 13.4381 40.8958 13.4761 40.8506 13.507C40.7485 13.4049 40.758 13.2766 40.7603 13.1483C40.7865 12.7444 40.6321 12.4237 40.3161 12.1742C39.1544 10.668 37.6791 10.1169 35.8355 10.7227C35.6193 10.794 35.4934 10.6989 35.3865 10.5374C35.1941 10.2784 35.0088 10.0076 34.65 9.95533C34.5716 9.89357 34.4956 9.82942 34.4172 9.76765C34.2224 9.50632 34.0228 9.24975 33.6546 9.23312C31.1173 7.4941 28.3663 6.25635 25.3372 5.66717C24.8954 5.58165 24.4511 5.50325 24.0092 5.42247C23.6339 5.14214 23.1896 5.29419 22.7833 5.24905C21.2581 5.07325 19.7306 5.23242 18.2053 5.3417C18.1768 5.34408 18.2909 5.3512 18.2909 5.4106C17.8443 5.47474 17.4 5.53889 16.9534 5.60303C16.894 5.56502 16.8274 5.55789 16.7585 5.56502C16.711 5.56977 16.6635 5.54601 16.6184 5.57214C16.6706 5.56739 16.7158 5.58402 16.7514 5.62441C16.2739 5.72657 15.794 5.83109 15.3165 5.93325C14.9126 5.80734 14.5871 6.07105 14.2308 6.16132C13.7889 6.27536 13.3185 6.32762 12.9313 6.60558C11.5035 7.17575 10.0828 7.76018 8.75716 8.55129C7.42914 9.34478 6.18426 10.2499 5.04629 11.3C4.84673 11.4829 4.63767 11.7276 4.35021 11.4782C4.05562 11.2216 4.28607 10.9888 4.44762 10.7726C4.84911 10.238 5.21734 9.675 5.70674 9.20936C5.88254 9.1167 6.05122 9.0193 6.06072 8.78886C7.95654 6.5747 10.2135 4.80241 12.7531 3.38887C14.8675 2.21289 17.0912 1.31724 19.4669 0.825472C20.0204 0.891992 20.5312 0.671051 21.0633 0.587901C22.1205 0.423977 23.1825 0.317073 24.2468 0.219669C25.456 0.19116 26.6605 0.233926 27.865 0.326579C29.3641 0.507133 30.8465 0.773214 32.3028 1.18896C32.3884 1.21272 32.481 1.20559 32.5641 1.1557C37.2847 2.49798 41.4089 4.75965 44.3405 8.83875C44.647 9.264 44.9345 9.70351 45.115 10.2048C45.0841 10.3164 45.1055 10.4257 45.1531 10.5208C45.9465 12.1125 46.2435 13.7921 46.0487 15.5596C46.0416 15.6309 46.0511 15.7046 46.0914 15.7687C46.1009 16.1179 46.0249 16.4481 45.8919 16.7689C45.7375 17.0326 45.5545 17.2892 45.6496 17.6241C45.2576 18.8049 44.6138 19.824 43.6944 20.665C43.4734 20.6912 43.3404 20.8123 43.2857 21.0214Z" fill="white"/>
<path d="M28.0883 42.0819C27.8697 42.4264 27.5158 42.2149 27.2426 42.2506C25.3206 42.5119 23.4034 42.4834 21.5052 42.032C21.4767 42.0249 21.4577 41.9821 21.4339 41.9536C22.762 42.0534 24.0852 42.253 25.4228 42.1912C25.8219 42.1722 26.221 42.1793 26.6201 42.1746C26.8102 42.0914 27.024 42.1769 27.214 42.0985C27.5134 42.1033 27.7866 41.9251 28.0907 41.9821C28.1287 42.0035 28.1406 42.0249 28.1287 42.0463C28.1121 42.0724 28.1002 42.0819 28.0883 42.0819Z" fill="white"/>
<path d="M25.0284 8.24943C24.5699 8.48225 24.09 8.28031 23.6671 8.19954C22.3557 7.95009 21.0443 8.057 19.7329 8.02849C19.6474 8.02611 19.5215 8.00948 19.5262 8.13302C19.5286 8.19479 19.6308 8.25418 19.6878 8.35634C18.9252 8.02374 18.1745 8.21854 17.4166 8.3397C17.2337 8.36821 17.0175 8.41335 16.8464 8.25418C17.457 8.20429 18.0462 7.99998 18.6639 8.00948C18.8468 7.91921 19.0558 8.01186 19.2411 7.93346C19.5524 7.92396 19.8636 7.91208 20.1724 7.90257C20.8281 7.8313 21.4862 7.8313 22.1419 7.90257C23.1231 7.85031 24.0686 8.12589 25.0284 8.24943Z" fill="white"/>
<path d="M46.0891 15.7685C45.9038 15.5452 45.9988 15.2791 45.9964 15.0344C45.9869 14.2029 46.0748 13.3548 45.7683 12.566C45.5213 11.9317 45.5545 11.1976 45.0865 10.6417C44.9748 10.5087 44.963 10.3424 45.1126 10.2046C46.0534 11.9507 46.3765 13.8062 46.0891 15.7685Z" fill="white"/>
<path d="M45.545 39.1316C45.4857 38.7966 45.4595 38.4854 45.6401 38.148C45.9157 37.6325 45.9323 37.0362 45.9893 36.4637C46.0796 35.5633 45.8563 34.6724 45.8895 33.772C46.1247 34.43 46.1936 35.1143 46.1912 35.808C46.1841 36.9531 46.0273 38.0744 45.545 39.1316Z" fill="white"/>
<path d="M26.3398 50.0478C26.9789 49.8149 27.6607 50.0074 28.3093 49.8363C28.9816 49.6581 29.68 49.6415 30.3643 49.4705C31.0295 49.3042 31.7255 49.1497 32.424 49.0808C32.4668 49.0761 32.5143 49.1355 32.5594 49.164C31.2433 49.537 29.9224 49.8696 28.5492 49.9504C28.371 50.0501 28.1596 49.9408 27.9814 50.0335C27.8127 50.043 27.6441 50.0525 27.473 50.062C27.138 50.1713 26.7864 50.0383 26.4514 50.1428C26.4134 50.1428 26.3754 50.1428 26.3374 50.1428C26.2994 50.1214 26.2875 50.1024 26.2994 50.081C26.316 50.0596 26.3279 50.0478 26.3398 50.0478Z" fill="white"/>
<path d="M33.3244 22.0027C33.6831 21.9124 34.1012 21.7057 34.3816 22.043C34.9779 22.7629 35.8759 22.5657 36.6029 22.865C36.5791 22.9102 36.5435 22.9387 36.496 22.9577C35.3628 22.8936 34.3032 22.5847 33.3244 22.0027Z" fill="white"/>
<path d="M35.3984 17.3222C35.2274 17.4624 35.0658 17.422 34.9114 17.2937C34.0442 16.5762 33.3885 15.7352 33.3268 14.5521C33.322 14.4809 33.3363 14.3953 33.303 14.3383C33.075 13.9416 33.1581 13.5876 33.4361 13.2574C33.4669 13.2027 33.4978 13.2051 33.5287 13.2574C33.3529 14.1364 33.4408 14.9798 33.8637 15.778C34.2177 16.4503 34.7094 16.9872 35.3984 17.3222Z" fill="white"/>
<path d="M39.4157 39.229C39.5131 39.5949 39.0237 39.716 38.9881 39.7208C38.0069 39.8348 37.0139 40.1603 36.0351 39.6923C35.7381 39.5497 35.4269 39.3716 35.099 39.6638C35.0396 39.716 34.9256 39.6614 34.8591 39.583C35.1941 39.267 35.5053 39.2409 35.9543 39.4571C37.1303 40.0249 38.2967 39.8229 39.4157 39.229Z" fill="white"/>
<path d="M9.00425 29.4813C8.97337 29.6547 8.98763 29.8472 8.76193 30.0254C8.76193 28.8874 8.73343 27.8017 8.77144 26.7184C8.79757 25.9843 8.91398 25.2549 9.00188 24.5232C9.00426 24.4971 8.98525 24.1051 9.21332 24.4258C8.99713 25.6992 8.87359 26.9797 8.88072 28.2697C8.97337 28.4978 8.86884 28.7472 8.96149 28.9753C8.97812 29.1463 8.99237 29.3126 9.00425 29.4813Z" fill="white"/>
<path d="M18.2837 5.41049C18.1293 5.39623 17.9773 5.38435 17.6779 5.35822C19.9729 5.028 22.1158 4.97811 24.261 5.38198C24.1755 5.39623 24.0876 5.41049 24.0021 5.42474C23.8334 5.41049 23.6671 5.39623 23.4984 5.38198C23.3084 5.29883 23.0969 5.3891 22.9092 5.30358C22.6693 5.29407 22.4293 5.28695 22.1894 5.27745C21.5717 5.20855 20.9564 5.21092 20.3387 5.27507C20.0275 5.28457 19.7163 5.29407 19.4051 5.30358C19.177 5.3986 18.9276 5.2917 18.7019 5.38435C18.5617 5.39148 18.4239 5.40098 18.2837 5.41049Z" fill="white"/>
<path d="M26.6439 32.1348C26.7151 32.1419 26.7864 32.149 26.9171 32.1609C26.5108 32.4127 26.1165 32.3533 25.715 32.3818C24.5936 32.4602 23.5364 32.2037 22.4816 31.8948C22.3842 31.8663 22.3842 31.8663 22.5529 31.6929C23.192 31.8782 23.8263 32.0849 24.4915 32.168C24.6839 32.2464 24.8977 32.1609 25.0902 32.2464C25.2683 32.1942 25.4489 32.1942 25.6271 32.2464C25.8551 32.149 26.1093 32.2535 26.3398 32.1633C26.4396 32.1538 26.5417 32.1443 26.6439 32.1348Z" fill="white"/>
<path d="M32.5618 1.15812C32.3765 1.34343 32.1935 1.19375 32.0059 1.16049C30.7064 0.927671 29.4353 0.547557 28.1097 0.469158C28.0646 0.466783 28.0242 0.409772 27.979 0.378887C28.0028 0.364633 28.0265 0.348003 28.0503 0.333748C28.2166 0.336124 28.3877 0.293362 28.5492 0.371761C29.8202 0.428778 31.0366 0.756623 32.2529 1.09635C32.3527 1.12248 32.4573 1.13674 32.5618 1.15812Z" fill="white"/>
<path d="M17.8276 49.0546C18.0795 48.8265 18.2743 48.9833 18.5498 49.0736C19.3006 49.3207 20.0869 49.4632 20.8685 49.601C21.1346 49.6485 21.3959 49.696 21.6668 49.7649C21.5504 49.8742 21.4126 49.8124 21.2938 49.8433C20.1107 49.7031 18.9537 49.4418 17.8276 49.0546Z" fill="white"/>
<path d="M24.1565 0.269461C23.6125 0.46902 23.0328 0.388247 22.4745 0.478524C21.7737 0.590183 21.0704 0.649579 20.3839 0.868144C20.113 0.95367 19.7614 1.01069 19.4645 0.830132C20.3364 0.55455 21.2415 0.466648 22.1443 0.369244C22.3319 0.283718 22.5458 0.378747 22.7334 0.28847C22.8997 0.278967 23.0637 0.269466 23.23 0.259963C23.5079 0.181564 23.7906 0.229073 24.0733 0.224321C24.1018 0.238576 24.1304 0.255206 24.1565 0.269461Z" fill="white"/>
<path d="M16.1884 16.099C16.0767 15.8994 16.2692 15.8876 16.3618 15.8567C17.4024 15.4861 18.4358 15.0751 19.5714 15.1178C19.5833 15.1345 19.5952 15.1487 19.607 15.1653C19.5952 15.1796 19.5833 15.1962 19.569 15.2105C18.4168 15.4053 17.2741 15.6429 16.1884 16.099Z" fill="white"/>
<path d="M19.5714 15.1151C20.2033 14.9061 20.8733 14.9488 21.5147 14.9322C22.016 14.9203 22.56 14.975 23.1444 15.1959C22.9781 15.2173 22.895 15.2292 22.8118 15.241C21.9661 15.1745 21.1203 15.1032 20.2698 15.127C20.037 15.184 19.8042 15.2078 19.5714 15.1151Z" fill="white"/>
<path d="M27.979 0.378825C26.7033 0.407334 25.4346 0.191139 24.1589 0.269537C24.1233 0.250532 24.1114 0.22915 24.1233 0.210144C24.1351 0.191139 24.147 0.181637 24.1589 0.181637C25.4346 0.146001 26.7104 0.103242 27.979 0.288547C28.0147 0.307553 28.0265 0.328934 28.0147 0.34794C28.0028 0.369321 27.9909 0.378825 27.979 0.378825Z" fill="white"/>
<path d="M33.752 35.4183C33.5358 34.7365 33.9967 34.2756 34.3198 33.7933C34.5431 33.4631 34.7237 32.9856 35.2891 33.1115C34.4362 33.6531 34.0086 34.4799 33.752 35.4183Z" fill="white"/>
<path d="M39.0285 22.8791C38.912 22.8482 38.7766 22.9147 38.6626 22.7983C39.4561 22.6677 40.2329 22.5227 40.967 22.2044C41.1048 22.145 41.2592 22.0286 41.4042 22.2044C40.6511 22.5608 39.8718 22.8292 39.0285 22.8791Z" fill="white"/>
<path d="M33.341 12.3784C32.968 12.4164 32.8112 12.0814 32.6069 11.8913C32.2197 11.5302 31.6424 11.4495 31.3359 10.9909C31.2979 10.9339 31.3145 10.8912 31.3668 10.8579C32.0462 11.3354 32.8421 11.6657 33.341 12.3784Z" fill="white"/>
<path d="M21.7523 17.7502C21.232 17.9782 20.6642 17.8761 20.1249 17.9236C19.7353 17.9592 19.3243 18.2205 18.918 17.964C19.8517 17.7169 20.7949 17.648 21.7523 17.7502Z" fill="white"/>
<path d="M12.9265 6.60561C12.8719 6.58661 12.7483 6.53196 12.8101 6.51296C13.6083 6.27063 14.3733 5.89052 15.2286 5.86914C15.2547 5.86914 15.2832 5.90953 15.3117 5.93328C14.5159 6.1566 13.72 6.3823 12.9265 6.60561Z" fill="white"/>
<path d="M11.7125 26.469C11.6555 27.2673 11.8289 28.075 11.6175 28.8661C11.4916 28.0323 11.4631 27.196 11.6127 26.3621C11.6484 26.3241 11.6888 26.3194 11.7339 26.3455C11.7553 26.3907 11.7505 26.4334 11.7125 26.469Z" fill="white"/>
<path d="M9.99012 33.0806C9.95686 33.1424 9.85708 33.2256 9.84995 33.1852C9.71454 32.4915 9.14436 31.9403 9.20376 31.1896C9.21088 31.1064 9.26078 31.028 9.29166 30.9473C9.39857 31.7004 9.80719 32.3537 9.99012 33.0806Z" fill="white"/>
<path d="M24.7053 15.7594C24.8431 15.6715 24.9072 15.4743 25.1472 15.7332C25.3705 15.9756 25.7649 16.0801 26.1022 16.1965C26.3968 16.2987 26.5797 16.4626 26.6557 16.7595C26.0048 16.4269 25.3539 16.0943 24.7053 15.7594Z" fill="white"/>
<path d="M40.7342 34.4727C40.9053 34.5225 41.2307 34.9882 41.2189 35.1569C41.207 35.3184 41.1999 35.4823 41.188 35.6439C41.2735 36.005 41.2735 36.3685 41.188 36.7296C41.1547 36.7652 41.1214 36.8032 41.0882 36.8389C41.1333 36.024 41.0906 35.2258 40.7342 34.4727Z" fill="white"/>
<path d="M21.4411 41.9634C20.7806 42.0679 20.2033 41.7544 19.5951 41.5928C19.4763 41.5619 19.3029 41.474 19.5951 41.417C20.2294 41.5334 20.8376 41.7353 21.4411 41.9634Z" fill="white"/>
<path d="M37.0614 47.4394C37.0424 47.4133 37.002 47.361 37.0043 47.361C37.451 47.0165 37.8929 46.6578 38.463 46.5295C38.4868 46.5248 38.5296 46.6031 38.5652 46.6435C38.0663 46.9167 37.6102 47.2636 37.0614 47.4394Z" fill="white"/>
<path d="M30.3785 38.6943C30.6921 38.3925 31.229 38.4828 31.4808 38.1716C31.7137 37.8818 31.8253 37.9697 32.013 38.1383C31.5426 38.4115 31.0342 38.5873 30.5044 38.7038C30.4617 38.7394 30.4189 38.7346 30.3785 38.6943Z" fill="white"/>
<path d="M14.7463 8.77441C14.7915 8.7958 14.8366 8.81717 14.8817 8.83618C14.3448 9.00248 13.8626 9.38972 13.2473 9.24718C13.7366 9.05475 14.2213 8.85044 14.7463 8.77441Z" fill="white"/>
<path d="M30.3785 38.6943C30.4213 38.6967 30.464 38.6991 30.5068 38.7038C30.0768 38.9842 29.5731 39.0341 29.0885 39.1433C29.0172 39.1362 28.9483 39.1291 28.8771 39.122C29.376 38.9675 29.844 38.7133 30.3785 38.6943Z" fill="white"/>
<path d="M10.8312 20.5723C10.8122 20.1066 11.159 19.6244 11.6104 19.4961C11.3491 19.8548 11.0901 20.2136 10.8312 20.5723Z" fill="white"/>
<path d="M19.2507 28.9684C18.8325 28.8424 18.5997 28.4006 18.6829 27.8945C18.8705 28.2509 19.0606 28.6096 19.2507 28.9684Z" fill="white"/>
<path d="M43.8013 42.1864C43.8037 41.7849 44.1766 41.2551 44.4736 41.229C44.2218 41.5307 44.1078 41.9251 43.8013 42.1864Z" fill="white"/>
<path d="M33.5572 48.8526C33.5073 48.8289 33.3671 48.8051 33.4432 48.76C33.8043 48.539 34.1844 48.3513 34.631 48.501C34.2723 48.6174 33.9159 48.7338 33.5572 48.8526Z" fill="white"/>
<path d="M26.3398 50.0478C26.3398 50.0787 26.3398 50.1096 26.3398 50.1405C25.6508 50.1405 24.9595 50.1405 24.2705 50.1405C24.9524 49.9409 25.6508 50.1001 26.3398 50.0478Z" fill="white"/>
<path d="M33.752 28.1011C33.8423 28.151 33.9421 28.3149 33.904 28.3101C33.5311 28.265 33.2769 28.6998 32.892 28.5525C33.1581 28.3624 33.4241 28.17 33.752 28.1011Z" fill="white"/>
<path d="M38.4535 27.3595C37.8026 27.5068 37.1492 27.5045 36.4983 27.3595C37.1516 27.293 37.8026 27.2954 38.4535 27.3595Z" fill="white"/>
<path d="M33.6498 9.23765C34.1155 9.15213 34.2438 9.2424 34.4124 9.77219C34.1559 9.59163 33.904 9.41346 33.6498 9.23765Z" fill="white"/>
<path d="M36.496 22.9578C36.5316 22.9269 36.5672 22.896 36.6029 22.8652C37.2182 22.9174 37.8454 22.7606 38.4536 22.9554C37.8002 23.0267 37.1493 23.022 36.496 22.9578Z" fill="white"/>
<path d="M40.3113 12.1768C40.7627 12.3383 40.8934 12.6281 40.7556 13.1508C40.6059 12.8253 40.4586 12.5022 40.3113 12.1768Z" fill="white"/>
<path d="M40.3351 45.4719C40.4586 44.9802 40.6748 44.8186 41.0763 44.9136C40.8554 45.1346 40.6154 45.3318 40.3351 45.4719Z" fill="white"/>
<path d="M22.1419 7.90268C21.4862 7.90268 20.8305 7.90268 20.1724 7.90268C20.8281 7.78389 21.4862 7.77201 22.1419 7.90268Z" fill="white"/>
<path d="M20.3388 5.27536C20.9565 5.12569 21.5718 5.12094 22.1894 5.27774C21.5718 5.27536 20.9565 5.27536 20.3388 5.27536Z" fill="white"/>
<path d="M34.6429 9.95789C35.0373 9.9175 35.282 10.1099 35.3794 10.5399C35.1347 10.3475 34.89 10.1527 34.6429 9.95789Z" fill="white"/>
<path d="M11.7126 26.469C11.7126 26.4334 11.7126 26.3954 11.7126 26.3598C11.6247 26.1341 11.6389 25.9084 11.7031 25.6803C11.6888 25.4237 11.7102 25.1743 11.8361 24.9438C11.9786 25.4665 11.829 25.9678 11.7126 26.469Z" fill="white"/>
<path d="M39.7744 33.3228C40.2519 33.3346 40.499 33.5888 40.4301 33.9974C40.2115 33.7741 39.993 33.5484 39.7744 33.3228Z" fill="white"/>
<path d="M33.5287 13.26C33.4978 13.26 33.4669 13.26 33.4361 13.26C33.36 12.9678 33.6024 12.64 33.3339 12.3691C34.1535 12.5022 33.4907 12.9583 33.5287 13.26Z" fill="white"/>
<path d="M45.6448 17.6217C45.4358 17.2464 45.7185 16.9589 45.8206 16.6382C45.8349 16.6477 45.8563 16.6524 45.861 16.6643C45.8753 16.6976 45.88 16.7332 45.8895 16.7688C45.9371 17.0896 45.6401 17.3129 45.6448 17.6217Z" fill="white"/>
<path d="M10.2943 45.3511C10.6554 45.2869 10.8597 45.4508 10.9405 45.7953C10.6981 45.6884 10.4867 45.5316 10.2943 45.3511Z" fill="white"/>
<path d="M45.8966 33.7811C45.7161 33.4414 45.4571 33.123 45.6472 32.6978C45.6876 33.0684 45.9893 33.3772 45.8966 33.7811Z" fill="white"/>
<path d="M28.7416 9.44688C28.5445 9.55141 28.2332 9.47777 28.0693 9.28533C28.0669 9.28058 28.0812 9.24969 28.0954 9.24494C28.1287 9.23306 28.1643 9.22832 28.2 9.22119C28.3805 9.29484 28.5611 9.37086 28.7416 9.44688Z" fill="white"/>
<path d="M40.8744 14.355C41.0787 14.6614 40.9504 14.9442 40.8174 15.2292C40.8174 15.2292 40.7817 15.2197 40.7794 15.2102C40.7651 15.177 40.7604 15.1437 40.7509 15.1105C40.7912 14.8586 40.8316 14.6068 40.8744 14.355Z" fill="white"/>
<path d="M43.2857 21.0212C43.2833 20.7456 43.3023 20.4961 43.6896 20.6624C43.5874 20.8169 43.4496 20.9333 43.2857 21.0212Z" fill="white"/>
<path d="M20.3601 20.0378C20.3601 19.7409 20.4765 19.6411 20.7687 19.691C20.6333 19.8074 20.4955 19.9214 20.3601 20.0378Z" fill="white"/>
<path d="M26.4538 50.1405C26.7817 49.9623 27.1333 50.0811 27.4754 50.0597C27.1404 50.1785 26.796 50.15 26.4538 50.1405Z" fill="white"/>
<path d="M43.692 29.6594C43.3879 29.7283 43.2881 29.6404 43.2833 29.2983C43.4188 29.4171 43.5565 29.5383 43.692 29.6594Z" fill="white"/>
<path d="M24.1589 0.181718C24.1589 0.212602 24.1589 0.241112 24.1589 0.271996C23.8501 0.267245 23.5412 0.264867 23.2347 0.262491C23.5341 0.138955 23.8453 0.16984 24.1589 0.181718Z" fill="white"/>
<path d="M6.05835 8.79102C6.13199 9.09273 5.9847 9.20676 5.70437 9.21151C5.82078 9.07135 5.93956 8.93118 6.05835 8.79102Z" fill="white"/>
<path d="M26.7722 8.69614C26.5489 8.82918 26.3517 8.87432 26.2471 8.55835C26.4396 8.54172 26.6059 8.62249 26.7722 8.69614Z" fill="white"/>
<path d="M18.7019 5.38189C18.9204 5.21083 19.1699 5.31774 19.4051 5.30111C19.1794 5.40802 18.9418 5.40089 18.7019 5.38189Z" fill="white"/>
<path d="M11.703 25.6802C11.7054 25.9059 11.7102 26.1339 11.7125 26.3596C11.6793 26.3596 11.646 26.3596 11.6128 26.362C11.6033 26.1292 11.57 25.894 11.703 25.6802Z" fill="white"/>
<path d="M19.5714 15.1152C19.8042 15.12 20.037 15.1224 20.2698 15.1271C20.0441 15.2126 19.8089 15.2221 19.5714 15.2079C19.5714 15.177 19.5714 15.1461 19.5714 15.1152Z" fill="white"/>
<path d="M8.96384 28.9776C8.79516 28.759 8.8997 28.5095 8.88307 28.272C8.99235 28.4977 8.97572 28.7376 8.96384 28.9776Z" fill="white"/>
<path d="M26.3374 32.1635C26.1165 32.337 25.8623 32.2229 25.6247 32.2467C25.8528 32.1398 26.0975 32.1588 26.3374 32.1635Z" fill="white"/>
<path d="M28.0883 42.082C28.0883 42.0488 28.0883 42.0179 28.0883 41.9846C28.1905 41.9751 28.2926 41.968 28.3924 41.9585C28.4732 41.9704 28.5516 41.9799 28.6323 41.9918C28.63 42.0203 28.63 42.0512 28.6276 42.0797C28.4494 42.082 28.2689 42.082 28.0883 42.082Z" fill="white"/>
<path d="M27.979 0.37888C27.979 0.347996 27.979 0.319486 27.979 0.288602C28.1762 0.26722 28.371 0.26247 28.5492 0.371753C28.3592 0.374129 28.1691 0.376504 27.979 0.37888Z" fill="white"/>
<path d="M22.7358 0.28628C22.5576 0.445453 22.3462 0.35755 22.1467 0.367053C22.332 0.253019 22.5339 0.26965 22.7358 0.28628Z" fill="white"/>
<path d="M40.8459 13.5092C40.8649 13.4641 40.8744 13.388 40.9053 13.3785C40.9765 13.3548 40.9647 13.4308 40.967 13.4688C40.9694 13.5876 40.9908 13.7135 40.8744 13.8014C40.8649 13.704 40.8554 13.6066 40.8459 13.5092Z" fill="white"/>
<path d="M22.9092 5.30369C23.1088 5.31319 23.3202 5.22529 23.4984 5.38209C23.2965 5.4011 23.0946 5.40347 22.9092 5.30369Z" fill="white"/>
<path d="M27.2117 42.101C27.0311 42.2554 26.8173 42.1699 26.6178 42.177C26.8054 42.0773 27.0074 42.0891 27.2117 42.101Z" fill="white"/>
<path d="M19.2412 7.93348C19.0654 8.08315 18.8587 8 18.6639 8.00951C18.8468 7.92161 19.0416 7.9121 19.2412 7.93348Z" fill="white"/>
<path d="M25.0878 32.2467C24.8859 32.2301 24.6721 32.3251 24.4891 32.1683C24.6934 32.1565 24.8978 32.1493 25.0878 32.2467Z" fill="white"/>
<path d="M27.9814 50.031C28.1525 49.8742 28.3592 49.9597 28.5492 49.9478C28.371 50.0547 28.1786 50.05 27.9814 50.031Z" fill="white"/>
<path d="M16.7467 5.62433C16.6635 5.61245 16.5804 5.60057 16.4212 5.57681C16.6588 5.49129 16.8108 5.47229 16.9463 5.60295C16.8797 5.61008 16.8132 5.6172 16.7467 5.62433Z" fill="white"/>
<path d="M17.9488 25.5829C17.9441 25.4974 17.9369 25.4118 17.9346 25.3287C17.9322 25.1363 17.9345 24.9438 18.0034 24.749C18.0034 25.0199 18.0034 25.2931 18.0034 25.5639C17.9868 25.571 17.9678 25.5781 17.9488 25.5829Z" fill="white"/>
<path d="M41.188 36.7273C41.188 36.3662 41.188 36.0027 41.188 35.6416C41.3567 36.0051 41.3567 36.3662 41.188 36.7273Z" fill="white"/>
</svg>
