<svg width="51" height="35" viewBox="0 0 51 35" fill="none" xmlns="http://www.w3.org/2000/svg">
<path d="M30.8273 16.6998C30.7188 17.1073 30.7378 17.9955 30.3055 18.4C29.7984 18.8734 28.8603 19.1768 28.1803 19.0772C27.6453 18.9995 26.9564 18.2769 26.7805 17.7038C25.7341 14.2903 27.2759 11.2021 30.562 9.86983C32.2006 9.20441 33.8304 8.51848 35.4822 7.88531C39.1449 6.48266 42.3357 7.62003 44.1751 11.0614C46.0482 14.5644 47.873 18.0937 49.645 21.6494C51.9519 26.278 49.3885 31.72 44.3803 32.9175C42.0895 33.4656 39.7898 33.9786 37.4931 34.4989C35.0865 35.0442 32.1024 33.5375 31.0691 31.2891C30.603 30.2734 30.8771 29.4365 31.7286 28.8458C32.608 28.2361 33.697 28.1115 34.3507 29.0378C35.4045 30.5314 36.6416 30.6222 38.2245 30.1474C39.8792 29.652 41.5911 29.35 43.2708 28.9367C45.8709 28.2977 47.0815 25.8398 45.8826 23.4243C44.1179 19.8686 42.2712 16.351 40.4142 12.8422C39.6843 11.4645 38.6554 11.1083 37.2161 11.6506C35.4778 12.3072 33.7615 13.0254 32.032 13.7069C30.7701 14.2067 30.5033 15.1726 30.8273 16.6998Z" fill="#60459B"/>
<path d="M24.3856 16.0844C24.3856 16.5079 24.4193 16.9345 24.3798 17.3536C24.2684 18.5306 23.433 19.2238 22.2238 19.1769C21.0205 19.13 20.2539 18.3474 20.27 17.1426C20.2759 16.7219 20.3726 16.3013 20.399 15.8792C20.462 14.8825 20.0678 14.1614 19.1122 13.7803C17.3065 13.0592 15.5139 12.2985 13.6936 11.6155C12.3862 11.1245 11.3309 11.4704 10.6743 12.7045C8.72789 16.3599 6.78588 20.0182 4.97431 23.741C3.96446 25.8179 5.19563 28.2626 7.42931 28.8562C9.63367 29.4425 11.8527 30.0185 14.1025 30.3658C14.7591 30.467 15.6781 29.9218 16.2321 29.4088C17.349 28.374 18.3647 28.1014 19.3437 28.8811C20.3184 29.6565 20.4401 30.8759 19.4859 32.0264C17.8839 33.9567 15.9331 35.1175 13.2759 34.4727C10.9865 33.9157 8.67219 33.4643 6.39454 32.8677C1.63845 31.6219 -0.867847 26.347 1.27056 21.8869C3.09825 18.0762 5.07398 14.3329 7.09953 10.6233C8.72935 7.64064 11.9831 6.54432 15.1783 7.7535C17.0309 8.45409 18.8689 9.19572 20.6951 9.9608C23.3318 11.0644 24.6143 13.1897 24.3856 16.0844Z" fill="#60459B"/>
<path d="M25.5376 25.8163C23.4183 25.8163 21.2989 25.8251 19.1796 25.8134C14.6682 25.7885 11.454 21.6392 12.587 17.3154C12.9461 15.948 13.9779 15.2533 15.212 15.5479C16.364 15.8234 16.9195 16.8758 16.6249 18.2271C16.175 20.2966 17.2977 21.6744 19.6061 21.7535C21.554 21.8195 23.5048 21.7725 25.4541 21.774C27.3184 21.7755 29.1842 21.796 31.0486 21.7682C33.7469 21.7286 34.7083 20.5634 34.2672 17.9252C34.0884 16.8567 34.7113 15.8381 35.7167 15.5566C36.8541 15.2386 37.9167 15.8307 38.3139 17.0018C39.7253 21.1672 36.5595 25.7123 32.1478 25.8075C29.9464 25.8559 27.7405 25.8163 25.5376 25.8163Z" fill="#60459B"/>
<path d="M16.3303 5.07126C17.3666 1.19603 18.9187 -0.00874629 22.6635 4.77245e-05C24.6949 0.00444473 26.7248 4.77245e-05 28.7563 4.77245e-05C32.0731 4.77245e-05 33.9755 1.62987 34.5706 5.08592C33.379 5.5007 32.1669 5.92428 30.9943 6.3332C30.8639 6.21448 30.7701 6.17052 30.7437 6.10163C29.9039 3.83424 30.0578 4.19626 27.8476 4.17721C26.1137 4.16255 24.3739 4.25342 22.6459 4.14642C21.3693 4.06728 20.6277 4.4806 20.3873 5.7484C20.3507 5.93894 20.2261 6.11189 20.1117 6.35958C18.8308 5.92282 17.6069 5.5051 16.3303 5.07126Z" fill="#60459B"/>
</svg>
