<svg width="50" height="45" viewBox="0 0 50 45" fill="none" xmlns="http://www.w3.org/2000/svg">
<path d="M8.64941 24.8738C13.5338 27.7278 18.4365 30.5523 23.2885 33.4612C24.3206 34.0793 25.0893 34.2201 26.1862 33.5499C30.9974 30.6086 35.8705 27.7686 40.7211 24.8906C40.7647 24.709 40.8084 24.5274 40.852 24.3458C40.9534 23.9811 41.0125 23.6094 41.028 23.2306C41.0872 18.687 41.0463 14.1447 41.0491 9.60107C41.0505 8.19165 41.0083 6.78927 42.1009 5.68116C44.4734 4.21542 46.8459 2.74969 49.9534 0.830566C49.9534 3.88454 49.9534 6.27816 49.9534 8.67037C49.9534 14.9304 49.8788 21.1904 49.9985 27.4476C50.0351 29.3526 49.424 30.396 47.7499 31.3309C40.7591 35.2367 33.857 39.3016 26.924 43.3117C25.8004 43.9622 24.8176 44.5944 23.3744 43.7284C15.6162 39.0693 7.79756 34.5116 0 29.9201C0.399875 22.0141 0.0492793 14.1039 0.201345 6.19649C0.229505 4.76173 -0.375938 3.01157 1.58542 2.2076C3.63408 3.15801 5.65316 4.16051 7.39065 5.63751C8.38893 6.80757 8.35232 8.2184 8.35936 9.63627C8.38048 14.3306 8.2791 19.0249 8.41427 23.7178C8.48327 24.1064 8.5607 24.4922 8.64941 24.8738Z" fill="#EF4923"/>
<path d="M36.4999 15.4724C35.9367 17.8688 37.6009 20.82 35.6016 22.3336C32.3547 24.792 28.5671 28.0065 24.95 28.0797C21.5116 28.1501 17.5283 25.1159 14.6659 22.4871C12.2582 20.2765 14.0139 16.4425 13.8126 13.3421C13.7126 11.8144 12.8763 9.74603 14.4701 8.71255C17.817 6.53999 21.4201 3.1326 24.8683 3.18892C28.4883 3.24806 32.2857 6.45128 35.5551 8.88714C37.5883 10.4022 35.8663 13.3618 36.4999 15.4724Z" fill="#EF4923"/>
</svg>
