<svg width="50" height="44" viewBox="0 0 50 44" fill="none" xmlns="http://www.w3.org/2000/svg">
<path d="M8.64941 24.5339C13.5338 27.3879 18.4365 30.2124 23.2885 33.1214C24.3206 33.7395 25.0893 33.8803 26.1862 33.2101C30.9974 30.2687 35.8705 27.4288 40.7211 24.5508C40.7647 24.3692 40.8084 24.1875 40.852 24.0059C40.9534 23.6412 41.0125 23.2695 41.028 22.8908C41.0872 18.3471 41.0463 13.8049 41.0491 9.26122C41.0505 7.8518 41.0083 6.44942 42.1009 5.34132C44.4734 3.87558 46.8459 2.40984 49.9534 0.490723C49.9534 3.5447 49.9534 5.93831 49.9534 8.33053C49.9534 14.5905 49.8788 20.8506 49.9985 27.1078C50.0351 29.0128 49.424 30.0561 47.7499 30.9911C40.7591 34.8969 33.857 38.9618 26.924 42.9718C25.8004 43.6223 24.8176 44.2545 23.3744 43.3886C15.6162 38.7295 7.79756 34.1717 0 29.5802C0.399875 21.6742 0.0492793 13.764 0.201345 5.85665C0.229505 4.42189 -0.375938 2.67173 1.58542 1.86776C3.63408 2.81816 5.65316 3.82067 7.39065 5.29767C8.38893 6.46773 8.35232 7.87856 8.35936 9.29642C8.38048 13.9907 8.2791 18.685 8.41427 23.3779C8.48327 23.7666 8.5607 24.1523 8.64941 24.5339Z" fill="white"/>
<path d="M36.4999 15.1326C35.9366 17.529 37.6009 20.4802 35.6015 21.9938C32.3547 24.4522 28.5671 27.6667 24.9499 27.7399C21.5116 27.8103 17.5283 24.776 14.6658 22.1473C12.2581 19.9367 14.0139 16.1027 13.8126 13.0022C13.7126 11.4746 12.8763 9.40619 14.4701 8.37271C17.817 6.20014 21.4201 2.79276 24.8683 2.84908C28.4883 2.90821 32.2857 6.11144 35.5551 8.5473C37.5883 10.0623 35.8662 13.022 36.4999 15.1326Z" fill="white"/>
</svg>
