<svg width="50" height="42" viewBox="0 0 50 42" fill="none" xmlns="http://www.w3.org/2000/svg">
<path d="M0.073021 10.66C4.26304 12.7925 8.18578 14.6712 11.9605 16.8094C12.7392 17.2498 13.3219 18.6458 13.3796 19.6381C13.5603 22.7051 13.4449 25.7894 13.4449 29.1757C16.8196 27.4662 20.0136 25.9144 23.1383 24.2319C24.4055 23.5493 25.4612 23.5069 26.7438 24.1973C29.8781 25.8875 33.0817 27.4528 36.6237 29.2564C36.6237 26.0125 36.7333 23.0454 36.5852 20.0919C36.4853 18.0728 37.2563 16.9633 39.0639 16.1191C42.6655 14.4366 46.169 12.5425 49.9764 10.6023C49.9764 18.0036 50.0725 25.076 49.8764 32.1408C49.8456 33.2273 48.7111 34.6906 47.6862 35.2713C43.5827 37.5923 39.3408 39.6671 35.0988 41.7342C34.52 42.0169 33.5682 41.9477 32.9567 41.6708C30.7473 40.667 28.6552 39.394 26.4188 38.4633C25.5766 38.1134 24.4459 38.3191 23.4748 38.4672C22.873 38.5576 22.2538 38.9248 21.7634 39.3171C17.7484 42.5245 13.8757 42.0957 9.78564 39.2902C7.50892 37.7288 4.75146 36.875 2.42282 35.3751C1.37291 34.6983 0.205706 33.2388 0.173016 32.1043C-0.0288895 25.0914 0.073021 18.069 0.073021 10.66Z" fill="#EF9621"/>
<path d="M49.9245 6.73343C42.0367 10.7427 34.5643 14.6193 26.9977 18.2997C25.9151 18.8266 24.1518 18.8766 23.0826 18.3593C15.4525 14.677 7.92239 10.7888 0 6.78535C4.62075 4.44324 8.80116 2.16075 13.1392 0.237838C14.2507 -0.254427 15.9813 0.0955428 17.2235 0.580116C19.4714 1.45696 21.527 2.81839 23.7479 3.77984C24.4613 4.08943 25.5516 4.02213 26.2823 3.701C28.4994 2.72224 30.5435 1.2916 32.8183 0.516663C34.2336 0.0340122 36.1584 -0.0679037 37.4852 0.508969C41.6041 2.30304 45.546 4.50285 49.9245 6.73343Z" fill="#EF9621"/>
</svg>
