<svg width="50" height="43" viewBox="0 0 50 43" fill="none" xmlns="http://www.w3.org/2000/svg">
<path d="M0.0730362 11.5753C4.26306 13.7078 8.1858 15.5865 11.9605 17.7247C12.7392 18.1651 13.3219 19.5611 13.3796 20.5533C13.5603 23.6204 13.445 26.7047 13.445 30.091C16.8197 28.3815 20.0136 26.8297 23.1383 25.1472C24.4055 24.4645 25.4612 24.4222 26.7438 25.1126C29.8781 26.8028 33.0817 28.368 36.6237 30.1717C36.6237 26.9278 36.7333 23.9607 36.5853 21.0071C36.4853 18.9881 37.2564 17.8786 39.0639 17.0344C42.6655 15.3519 46.169 13.4578 49.9764 11.5176C49.9764 18.9189 50.0726 25.9913 49.8764 33.0561C49.8456 34.1425 48.7111 35.6059 47.6862 36.1866C43.5827 38.5075 39.3408 40.5824 35.0989 42.6495C34.5201 42.9322 33.5682 42.8629 32.9567 42.586C30.7473 41.5823 28.6552 40.3093 26.4188 39.3786C25.5766 39.0287 24.4459 39.2344 23.4749 39.3825C22.873 39.4728 22.2538 39.8401 21.7635 40.2324C17.7484 43.4398 13.8757 43.011 9.78566 40.2055C7.50893 38.6441 4.75148 37.7903 2.42283 36.2904C1.37292 35.6136 0.205721 34.1541 0.173031 33.0196C-0.0288742 26.0067 0.0730362 18.9842 0.0730362 11.5753Z" fill="white"/>
<path d="M49.9245 7.64871C42.0367 11.658 34.5643 15.5346 26.9977 19.215C25.9151 19.7419 24.1518 19.7919 23.0826 19.2746C15.4525 15.5923 7.92239 11.7041 0 7.70063C4.62075 5.35852 8.80116 3.07603 13.1392 1.15312C14.2507 0.660857 15.9813 1.01083 17.2235 1.4954C19.4714 2.37225 21.527 3.73367 23.7479 4.69512C24.4613 5.00471 25.5516 4.93741 26.2823 4.61628C28.4994 3.63752 30.5435 2.20688 32.8183 1.43195C34.2336 0.949295 36.1584 0.84738 37.4852 1.42425C41.6041 3.21833 45.546 5.41814 49.9245 7.64871Z" fill="white"/>
</svg>
