<svg width="56" height="31" viewBox="0 0 56 31" fill="none" xmlns="http://www.w3.org/2000/svg">
<path d="M44.6039 19.5984C44.6031 19.2514 44.5278 18.9087 44.3835 18.5939C44.2392 18.279 44.0291 17.9994 43.7678 17.7742L34.0043 9.35406L31.9364 7.60109L31.5391 7.25818C31.4106 7.14116 31.2602 7.05133 31.0968 6.994C30.9334 6.9366 30.7603 6.91291 30.5876 6.92428C30.415 6.93564 30.2464 6.9818 30.0917 7.06007C29.9371 7.13835 29.7996 7.24714 29.6872 7.38C29.5748 7.51286 29.49 7.66711 29.4376 7.83361C29.3853 8.00012 29.3665 8.17556 29.3823 8.34954C29.3982 8.52358 29.4485 8.69257 29.5301 8.84663C29.6117 9.00062 29.7231 9.13661 29.8577 9.24648L32.3283 11.346L41.9003 19.6057L33.5348 26.8201L31.3079 24.9485C31.1195 24.7868 30.8893 24.6828 30.6444 24.6489C30.3994 24.6149 30.1501 24.6524 29.9255 24.7569C29.701 24.8614 29.5107 25.0285 29.3771 25.2386C29.2435 25.4487 29.172 25.6929 29.1713 25.9426C29.1717 26.1335 29.2133 26.3219 29.2931 26.4949C29.373 26.6678 29.4892 26.8211 29.6337 26.9441L31.9924 28.9196C32.4238 29.292 32.9727 29.4967 33.5402 29.4967C34.1077 29.4967 34.6565 29.292 35.0879 28.9196L43.7678 21.4407C44.0315 21.2136 44.2429 20.931 44.3873 20.6128C44.5317 20.2946 44.6057 19.9484 44.6039 19.5984Z" fill="#0500FC"/>
<path d="M22.9115 21.0758L24.3166 22.287L24.4972 22.4129C24.7629 22.6103 25.0933 22.6976 25.4206 22.6571C25.748 22.6165 26.0477 22.4512 26.2583 22.1949C26.469 21.9385 26.5746 21.6105 26.5538 21.2781C26.533 20.9456 26.3871 20.6338 26.1461 20.4064L25.0264 19.4396L24.5929 19.0875C23.9549 18.5389 23.1444 18.2377 22.3065 18.2377C21.4686 18.2377 20.658 18.5389 20.02 19.0875L11.0729 26.8036L2.70009 19.5983L22.3047 2.68868L24.1883 4.22276C24.3188 4.33367 24.4696 4.41754 24.6321 4.46959C24.7947 4.52164 24.9658 4.54085 25.1357 4.52611C25.3056 4.51137 25.4709 4.46298 25.6223 4.3837C25.7737 4.30442 25.9081 4.19581 26.0179 4.06406C26.1277 3.9323 26.2107 3.78 26.2623 3.61584C26.3138 3.45167 26.3328 3.27886 26.3183 3.10727C26.3036 2.93568 26.2557 2.76868 26.1772 2.61579C26.0987 2.46291 25.9912 2.32713 25.8607 2.21622L23.8416 0.574514C23.4108 0.203683 22.8634 0 22.2974 0C21.7314 0 21.184 0.203683 20.7533 0.574514L0.836264 17.7505C0.574058 17.9765 0.363515 18.2573 0.219141 18.5735C0.0747673 18.8896 0 19.2337 0 19.5818C0 19.93 0.0747673 20.2741 0.219141 20.5903C0.363515 20.9064 0.574058 21.1872 0.836264 21.4133L9.51611 28.8922C9.9475 29.2646 10.4964 29.4692 11.0639 29.4692C11.6314 29.4692 12.1803 29.2646 12.6117 28.8922L21.6906 21.0758C21.8631 20.9342 22.0787 20.8569 22.301 20.8569C22.5233 20.8569 22.739 20.9342 22.9115 21.0758Z" fill="#0500FC"/>
<path d="M54.2771 18.2959L34.3601 1.11811C33.9286 0.746035 33.3798 0.541626 32.8124 0.541626C32.2449 0.541626 31.6961 0.746035 31.2645 1.11811L11.3476 18.2959C11.0871 18.5209 10.8777 18.7999 10.7336 19.1141C10.5895 19.4282 10.5141 19.77 10.5125 20.1162C10.5109 20.4624 10.5833 20.8049 10.7246 21.1203C10.8659 21.4357 11.0728 21.7167 11.3313 21.9441L12.3463 22.9109L12.3734 22.9346C12.6341 23.1493 12.9673 23.253 13.3025 23.2239C13.6376 23.1947 13.9484 23.035 14.169 22.7785C14.3897 22.522 14.5028 22.1889 14.4845 21.8496C14.4662 21.5104 14.318 21.1917 14.0711 20.9609L13.2024 20.1327L32.8124 3.22131L52.4151 20.1255L44.0477 27.3399L41.7829 25.4756C41.6525 25.3648 41.5017 25.281 41.3392 25.2291C41.1767 25.1771 41.0057 25.158 40.8359 25.1729C40.6661 25.1877 40.5008 25.2361 40.3496 25.3155C40.1983 25.3948 40.064 25.5034 39.9543 25.6352C39.8446 25.7669 39.7617 25.9193 39.7103 26.0833C39.6588 26.2475 39.6399 26.4202 39.6546 26.5917C39.6693 26.7632 39.7173 26.9301 39.7958 27.0829C39.8743 27.2357 39.9819 27.3713 40.1123 27.4821L42.4945 29.4521C42.9262 29.8247 43.4754 30.0294 44.0431 30.0294C44.611 30.0294 45.1602 29.8247 45.5919 29.4521L54.2609 21.9732C54.5231 21.7472 54.7336 21.4664 54.878 21.1502C55.0224 20.8341 55.0971 20.49 55.0971 20.1419C55.0971 19.7937 55.0224 19.4496 54.878 19.1335C54.7336 18.8173 54.5231 18.5365 54.2609 18.3104L54.2771 18.2959Z" fill="#0500FC"/>
<path d="M33.4224 21.6121L34.9666 22.9529C35.0951 23.0651 35.2442 23.1506 35.4055 23.2047C35.5668 23.2587 35.7371 23.2801 35.9065 23.2676C36.076 23.2552 36.2414 23.2091 36.3932 23.1321C36.5451 23.0551 36.6804 22.9486 36.7915 22.8188C36.9026 22.689 36.9874 22.5383 37.0409 22.3754C37.0943 22.2125 37.1154 22.0406 37.1031 21.8694C37.0908 21.6982 37.0452 21.5312 36.969 21.3778C36.8927 21.2245 36.7873 21.0878 36.6588 20.9755L35.1002 19.6165C34.4616 19.0656 33.6491 18.7628 32.8092 18.7628C31.9693 18.7628 31.1569 19.0656 30.5182 19.6165L21.5657 27.3362L19.6278 25.762C19.3656 25.538 19.026 25.4284 18.6837 25.4573C18.3415 25.4863 18.0246 25.6513 17.8028 25.9162C17.5811 26.181 17.4725 26.524 17.5011 26.8697C17.5298 27.2154 17.6932 27.5355 17.9555 27.7594L20.0306 29.4449C20.4621 29.814 21.0093 30.0166 21.5747 30.0166C22.1402 30.0166 22.6874 29.814 23.1189 29.4449L32.2105 21.6121C32.382 21.4719 32.5958 21.3954 32.8164 21.3954C33.0371 21.3954 33.2509 21.4719 33.4224 21.6121Z" fill="#0500FC"/>
</svg>
